<?xml version="1.0" standalone="no"?><!DOCTYPE svg PUBLIC "-//W3C//DTD SVG 1.1//EN" "http://www.w3.org/Graphics/SVG/1.1/DTD/svg11.dtd"><svg t="1652080043286" class="icon" viewBox="0 0 1024 1024" version="1.1" xmlns="http://www.w3.org/2000/svg" p-id="1211" data-spm-anchor-id="a313x.7781069.0.i2" width="128" height="128" xmlns:xlink="http://www.w3.org/1999/xlink"><defs><style type="text/css"></style></defs><path d="M102.4 102.4m307.2 0l204.8 0q307.2 0 307.2 307.2l0 204.8q0 307.2-307.2 307.2l-204.8 0q-307.2 0-307.2-307.2l0-204.8q0-307.2 307.2-307.2Z" fill="#536dea" p-id="1212" data-spm-anchor-id="a313x.7781069.0.i0" class="selected"></path><path d="M458.6496 524.3904a40.96 40.96 0 0 1 40.96 40.96V650.24c0 50.89792-41.25696 92.16-92.16 92.16H373.76c-50.89792 0-92.16-41.26208-92.16-92.16v-33.6896c0-50.90304 41.26208-92.16 92.16-92.16z m191.5904 0c50.89792 0 92.16 41.25696 92.16 92.16V650.24c0 50.89792-41.26208 92.16-92.16 92.16h-33.6896c-50.90304 0-92.16-41.26208-92.16-92.16V565.3504a40.96 40.96 0 0 1 40.96-40.96H650.24zM407.4496 281.6c50.90304 0 92.16 41.26208 92.16 92.16v84.8896a40.96 40.96 0 0 1-40.96 40.96H373.76c-50.89792 0-92.16-41.25696-92.16-92.16V373.76c0-50.89792 41.26208-92.16 92.16-92.16h33.6896zM650.24 281.6c50.89792 0 92.16 41.26208 92.16 92.16v33.6896c0 50.90304-41.26208 92.16-92.16 92.16H565.3504a40.96 40.96 0 0 1-40.96-40.96V373.76c0-50.89792 41.25696-92.16 92.16-92.16z" fill="#FFFFFF" fill-opacity=".8" p-id="1213"></path></svg>